solid 
   facet normal 0.000000e+00 -1.000000e+00 0.000000e+00
      outer loop
         vertex -3.000000e+00 -6.650000e+01 3.000000e+00
         vertex -3.000000e+00 -6.650000e+01 0.000000e+00
         vertex -5.033485e-14 -6.650000e+01 0.000000e+00
      endloop
   endfacet
   facet normal -0.000000e+00 -1.000000e+00 -0.000000e+00
      outer loop
         vertex -5.033485e-14 -6.650000e+01 0.000000e+00
         vertex -5.033485e-14 -6.650000e+01 3.000000e+00
         vertex -3.000000e+00 -6.650000e+01 3.000000e+00
      endloop
   endfacet
   facet normal 1.000000e+00 -8.498308e-16 0.000000e+00
      outer loop
         vertex -5.033485e-14 -6.650000e+01 3.000000e+00
         vertex -5.033485e-14 -6.650000e+01 0.000000e+00
         vertex 3.629409e-15 -3.000000e+00 0.000000e+00
      endloop
   endfacet
   facet normal 1.000000e+00 -8.498308e-16 0.000000e+00
      outer loop
         vertex 3.629409e-15 -3.000000e+00 0.000000e+00
         vertex 3.629409e-15 -3.000000e+00 3.000000e+00
         vertex -5.033485e-14 -6.650000e+01 3.000000e+00
      endloop
   endfacet
   facet normal 0.000000e+00 1.000000e+00 -0.000000e+00
      outer loop
         vertex 3.629409e-15 -3.000000e+00 3.000000e+00
         vertex 3.629409e-15 -3.000000e+00 0.000000e+00
         vertex -3.000000e+00 -3.000000e+00 0.000000e+00
      endloop
   endfacet
   facet normal -0.000000e+00 1.000000e+00 0.000000e+00
      outer loop
         vertex -3.000000e+00 -3.000000e+00 0.000000e+00
         vertex -3.000000e+00 -3.000000e+00 3.000000e+00
         vertex 3.629409e-15 -3.000000e+00 3.000000e+00
      endloop
   endfacet
   facet normal 1.000000e+00 0.000000e+00 0.000000e+00
      outer loop
         vertex -3.000000e+00 -3.000000e+00 3.000000e+00
         vertex -3.000000e+00 -3.000000e+00 0.000000e+00
         vertex -3.000000e+00 3.673940e-16 0.000000e+00
      endloop
   endfacet
   facet normal 1.000000e+00 0.000000e+00 0.000000e+00
      outer loop
         vertex -3.000000e+00 3.673940e-16 0.000000e+00
         vertex -3.000000e+00 3.673940e-16 3.000000e+00
         vertex -3.000000e+00 -3.000000e+00 3.000000e+00
      endloop
   endfacet
   facet normal 1.224647e-16 1.000000e+00 -0.000000e+00
      outer loop
         vertex -3.000000e+00 3.673940e-16 3.000000e+00
         vertex -3.000000e+00 3.673940e-16 0.000000e+00
         vertex -5.400000e+01 6.613093e-15 0.000000e+00
      endloop
   endfacet
   facet normal 1.224647e-16 1.000000e+00 0.000000e+00
      outer loop
         vertex -5.400000e+01 6.613093e-15 0.000000e+00
         vertex -5.400000e+01 6.613093e-15 3.000000e+00
         vertex -3.000000e+00 3.673940e-16 3.000000e+00
      endloop
   endfacet
   facet normal -1.000000e+00 0.000000e+00 0.000000e+00
      outer loop
         vertex -5.400000e+01 6.613093e-15 3.000000e+00
         vertex -5.400000e+01 6.613093e-15 0.000000e+00
         vertex -5.400000e+01 -3.650000e+01 0.000000e+00
      endloop
   endfacet
   facet normal -1.000000e+00 0.000000e+00 0.000000e+00
      outer loop
         vertex -5.400000e+01 -3.650000e+01 0.000000e+00
         vertex -5.400000e+01 -3.650000e+01 3.000000e+00
         vertex -5.400000e+01 6.613093e-15 3.000000e+00
      endloop
   endfacet
   facet normal 0.000000e+00 -1.000000e+00 0.000000e+00
      outer loop
         vertex -5.400000e+01 -3.650000e+01 3.000000e+00
         vertex -5.400000e+01 -3.650000e+01 0.000000e+00
         vertex -5.074000e+01 -3.650000e+01 0.000000e+00
      endloop
   endfacet
   facet normal -0.000000e+00 -1.000000e+00 -0.000000e+00
      outer loop
         vertex -5.074000e+01 -3.650000e+01 0.000000e+00
         vertex -5.074000e+01 -3.650000e+01 3.000000e+00
         vertex -5.400000e+01 -3.650000e+01 3.000000e+00
      endloop
   endfacet
   facet normal -1.000000e+00 0.000000e+00 0.000000e+00
      outer loop
         vertex -5.074000e+01 -3.650000e+01 3.000000e+00
         vertex -5.074000e+01 -3.650000e+01 0.000000e+00
         vertex -5.074000e+01 -3.950000e+01 0.000000e+00
      endloop
   endfacet
   facet normal -1.000000e+00 0.000000e+00 0.000000e+00
      outer loop
         vertex -5.074000e+01 -3.950000e+01 0.000000e+00
         vertex -5.074000e+01 -3.950000e+01 3.000000e+00
         vertex -5.074000e+01 -3.650000e+01 3.000000e+00
      endloop
   endfacet
   facet normal 0.000000e+00 1.000000e+00 -0.000000e+00
      outer loop
         vertex -5.074000e+01 -3.950000e+01 3.000000e+00
         vertex -5.074000e+01 -3.950000e+01 0.000000e+00
         vertex -5.400000e+01 -3.950000e+01 0.000000e+00
      endloop
   endfacet
   facet normal -0.000000e+00 1.000000e+00 0.000000e+00
      outer loop
         vertex -5.400000e+01 -3.950000e+01 0.000000e+00
         vertex -5.400000e+01 -3.950000e+01 3.000000e+00
         vertex -5.074000e+01 -3.950000e+01 3.000000e+00
      endloop
   endfacet
   facet normal -1.000000e+00 0.000000e+00 0.000000e+00
      outer loop
         vertex -5.400000e+01 -3.950000e+01 3.000000e+00
         vertex -5.400000e+01 -3.950000e+01 0.000000e+00
         vertex -5.400000e+01 -6.950000e+01 0.000000e+00
      endloop
   endfacet
   facet normal -1.000000e+00 0.000000e+00 0.000000e+00
      outer loop
         vertex -5.400000e+01 -6.950000e+01 0.000000e+00
         vertex -5.400000e+01 -6.950000e+01 3.000000e+00
         vertex -5.400000e+01 -3.950000e+01 3.000000e+00
      endloop
   endfacet
   facet normal 0.000000e+00 -1.000000e+00 0.000000e+00
      outer loop
         vertex -5.400000e+01 -6.950000e+01 3.000000e+00
         vertex -5.400000e+01 -6.950000e+01 0.000000e+00
         vertex -3.550000e+01 -6.950000e+01 0.000000e+00
      endloop
   endfacet
   facet normal -0.000000e+00 -1.000000e+00 -0.000000e+00
      outer loop
         vertex -3.550000e+01 -6.950000e+01 0.000000e+00
         vertex -3.550000e+01 -6.950000e+01 3.000000e+00
         vertex -5.400000e+01 -6.950000e+01 3.000000e+00
      endloop
   endfacet
   facet normal -1.000000e+00 0.000000e+00 0.000000e+00
      outer loop
         vertex -3.550000e+01 -6.950000e+01 3.000000e+00
         vertex -3.550000e+01 -6.950000e+01 0.000000e+00
         vertex -3.550000e+01 -8.500000e+01 0.000000e+00
      endloop
   endfacet
   facet normal -1.000000e+00 0.000000e+00 0.000000e+00
      outer loop
         vertex -3.550000e+01 -8.500000e+01 0.000000e+00
         vertex -3.550000e+01 -8.500000e+01 3.000000e+00
         vertex -3.550000e+01 -6.950000e+01 3.000000e+00
      endloop
   endfacet
   facet normal 0.000000e+00 -1.000000e+00 0.000000e+00
      outer loop
         vertex -3.550000e+01 -8.500000e+01 3.000000e+00
         vertex -3.550000e+01 -8.500000e+01 0.000000e+00
         vertex -1.550000e+01 -8.500000e+01 0.000000e+00
      endloop
   endfacet
   facet normal -0.000000e+00 -1.000000e+00 -0.000000e+00
      outer loop
         vertex -1.550000e+01 -8.500000e+01 0.000000e+00
         vertex -1.550000e+01 -8.500000e+01 3.000000e+00
         vertex -3.550000e+01 -8.500000e+01 3.000000e+00
      endloop
   endfacet
   facet normal 1.000000e+00 0.000000e+00 0.000000e+00
      outer loop
         vertex -1.550000e+01 -8.500000e+01 3.000000e+00
         vertex -1.550000e+01 -8.500000e+01 0.000000e+00
         vertex -1.550000e+01 -6.950000e+01 0.000000e+00
      endloop
   endfacet
   facet normal 1.000000e+00 0.000000e+00 0.000000e+00
      outer loop
         vertex -1.550000e+01 -6.950000e+01 0.000000e+00
         vertex -1.550000e+01 -6.950000e+01 3.000000e+00
         vertex -1.550000e+01 -8.500000e+01 3.000000e+00
      endloop
   endfacet
   facet normal 0.000000e+00 -1.000000e+00 0.000000e+00
      outer loop
         vertex -1.550000e+01 -6.950000e+01 3.000000e+00
         vertex -1.550000e+01 -6.950000e+01 0.000000e+00
         vertex -3.000000e+00 -6.950000e+01 0.000000e+00
      endloop
   endfacet
   facet normal -0.000000e+00 -1.000000e+00 -0.000000e+00
      outer loop
         vertex -3.000000e+00 -6.950000e+01 0.000000e+00
         vertex -3.000000e+00 -6.950000e+01 3.000000e+00
         vertex -1.550000e+01 -6.950000e+01 3.000000e+00
      endloop
   endfacet
   facet normal 1.000000e+00 0.000000e+00 0.000000e+00
      outer loop
         vertex -3.000000e+00 -6.950000e+01 3.000000e+00
         vertex -3.000000e+00 -6.950000e+01 0.000000e+00
         vertex -3.000000e+00 -6.650000e+01 0.000000e+00
      endloop
   endfacet
   facet normal 1.000000e+00 0.000000e+00 0.000000e+00
      outer loop
         vertex -3.000000e+00 -6.650000e+01 0.000000e+00
         vertex -3.000000e+00 -6.650000e+01 3.000000e+00
         vertex -3.000000e+00 -6.950000e+01 3.000000e+00
      endloop
   endfacet
   facet normal 0.000000e+00 0.000000e+00 1.000000e+00
      outer loop
         vertex -3.000000e+00 -6.950000e+01 3.000000e+00
         vertex -3.000000e+00 -6.650000e+01 3.000000e+00
         vertex -1.550000e+01 -6.950000e+01 3.000000e+00
      endloop
   endfacet
   facet normal 0.000000e+00 -0.000000e+00 1.000000e+00
      outer loop
         vertex -3.000000e+00 -6.650000e+01 3.000000e+00
         vertex -5.033485e-14 -6.650000e+01 3.000000e+00
         vertex 3.629409e-15 -3.000000e+00 3.000000e+00
      endloop
   endfacet
   facet normal -0.000000e+00 0.000000e+00 1.000000e+00
      outer loop
         vertex 3.629409e-15 -3.000000e+00 3.000000e+00
         vertex -3.000000e+00 -3.000000e+00 3.000000e+00
         vertex -3.000000e+00 -6.650000e+01 3.000000e+00
      endloop
   endfacet
   facet normal 0.000000e+00 0.000000e+00 1.000000e+00
      outer loop
         vertex -3.000000e+00 -3.000000e+00 3.000000e+00
         vertex -3.000000e+00 3.673940e-16 3.000000e+00
         vertex -5.400000e+01 6.613093e-15 3.000000e+00
      endloop
   endfacet
   facet normal 0.000000e+00 0.000000e+00 1.000000e+00
      outer loop
         vertex -5.400000e+01 6.613093e-15 3.000000e+00
         vertex -5.400000e+01 -3.650000e+01 3.000000e+00
         vertex -5.074000e+01 -3.650000e+01 3.000000e+00
      endloop
   endfacet
   facet normal -0.000000e+00 0.000000e+00 1.000000e+00
      outer loop
         vertex -5.074000e+01 -3.650000e+01 3.000000e+00
         vertex -5.074000e+01 -3.950000e+01 3.000000e+00
         vertex -1.550000e+01 -6.950000e+01 3.000000e+00
      endloop
   endfacet
   facet normal -0.000000e+00 0.000000e+00 1.000000e+00
      outer loop
         vertex -5.074000e+01 -3.950000e+01 3.000000e+00
         vertex -5.400000e+01 -3.950000e+01 3.000000e+00
         vertex -5.400000e+01 -6.950000e+01 3.000000e+00
      endloop
   endfacet
   facet normal 0.000000e+00 0.000000e+00 1.000000e+00
      outer loop
         vertex -5.400000e+01 -6.950000e+01 3.000000e+00
         vertex -3.550000e+01 -6.950000e+01 3.000000e+00
         vertex -5.074000e+01 -3.950000e+01 3.000000e+00
      endloop
   endfacet
   facet normal 0.000000e+00 0.000000e+00 1.000000e+00
      outer loop
         vertex -3.550000e+01 -6.950000e+01 3.000000e+00
         vertex -3.550000e+01 -8.500000e+01 3.000000e+00
         vertex -1.550000e+01 -8.500000e+01 3.000000e+00
      endloop
   endfacet
   facet normal 0.000000e+00 0.000000e+00 1.000000e+00
      outer loop
         vertex -1.550000e+01 -8.500000e+01 3.000000e+00
         vertex -1.550000e+01 -6.950000e+01 3.000000e+00
         vertex -3.550000e+01 -6.950000e+01 3.000000e+00
      endloop
   endfacet
   facet normal 0.000000e+00 0.000000e+00 1.000000e+00
      outer loop
         vertex -1.550000e+01 -6.950000e+01 3.000000e+00
         vertex -3.000000e+00 -6.650000e+01 3.000000e+00
         vertex -5.074000e+01 -3.650000e+01 3.000000e+00
      endloop
   endfacet
   facet normal 0.000000e+00 0.000000e+00 1.000000e+00
      outer loop
         vertex -3.000000e+00 -6.650000e+01 3.000000e+00
         vertex -3.000000e+00 -3.000000e+00 3.000000e+00
         vertex -5.074000e+01 -3.650000e+01 3.000000e+00
      endloop
   endfacet
   facet normal 0.000000e+00 0.000000e+00 1.000000e+00
      outer loop
         vertex -3.000000e+00 -3.000000e+00 3.000000e+00
         vertex -5.400000e+01 6.613093e-15 3.000000e+00
         vertex -5.074000e+01 -3.650000e+01 3.000000e+00
      endloop
   endfacet
   facet normal 0.000000e+00 0.000000e+00 1.000000e+00
      outer loop
         vertex -1.550000e+01 -6.950000e+01 3.000000e+00
         vertex -5.074000e+01 -3.950000e+01 3.000000e+00
         vertex -3.550000e+01 -6.950000e+01 3.000000e+00
      endloop
   endfacet
   facet normal 0.000000e+00 0.000000e+00 -1.000000e+00
      outer loop
         vertex 3.629409e-15 -3.000000e+00 0.000000e+00
         vertex -5.033485e-14 -6.650000e+01 0.000000e+00
         vertex -3.000000e+00 -6.650000e+01 0.000000e+00
      endloop
   endfacet
   facet normal 0.000000e+00 0.000000e+00 -1.000000e+00
      outer loop
         vertex -3.000000e+00 -6.650000e+01 0.000000e+00
         vertex -3.000000e+00 -3.000000e+00 0.000000e+00
         vertex 3.629409e-15 -3.000000e+00 0.000000e+00
      endloop
   endfacet
   facet normal -0.000000e+00 -0.000000e+00 -1.000000e+00
      outer loop
         vertex -5.400000e+01 6.613093e-15 0.000000e+00
         vertex -3.000000e+00 3.673940e-16 0.000000e+00
         vertex -3.000000e+00 -3.000000e+00 0.000000e+00
      endloop
   endfacet
   facet normal 0.000000e+00 0.000000e+00 -1.000000e+00
      outer loop
         vertex -5.074000e+01 -3.650000e+01 0.000000e+00
         vertex -5.400000e+01 -3.650000e+01 0.000000e+00
         vertex -5.400000e+01 6.613093e-15 0.000000e+00
      endloop
   endfacet
   facet normal 0.000000e+00 0.000000e+00 -1.000000e+00
      outer loop
         vertex -1.550000e+01 -6.950000e+01 0.000000e+00
         vertex -5.074000e+01 -3.950000e+01 0.000000e+00
         vertex -5.074000e+01 -3.650000e+01 0.000000e+00
      endloop
   endfacet
   facet normal 0.000000e+00 0.000000e+00 -1.000000e+00
      outer loop
         vertex -5.400000e+01 -6.950000e+01 0.000000e+00
         vertex -5.400000e+01 -3.950000e+01 0.000000e+00
         vertex -5.074000e+01 -3.950000e+01 0.000000e+00
      endloop
   endfacet
   facet normal 0.000000e+00 0.000000e+00 -1.000000e+00
      outer loop
         vertex -5.074000e+01 -3.950000e+01 0.000000e+00
         vertex -3.550000e+01 -6.950000e+01 0.000000e+00
         vertex -5.400000e+01 -6.950000e+01 0.000000e+00
      endloop
   endfacet
   facet normal 0.000000e+00 0.000000e+00 -1.000000e+00
      outer loop
         vertex -1.550000e+01 -8.500000e+01 0.000000e+00
         vertex -3.550000e+01 -8.500000e+01 0.000000e+00
         vertex -3.550000e+01 -6.950000e+01 0.000000e+00
      endloop
   endfacet
   facet normal -0.000000e+00 -0.000000e+00 -1.000000e+00
      outer loop
         vertex -3.550000e+01 -6.950000e+01 0.000000e+00
         vertex -1.550000e+01 -6.950000e+01 0.000000e+00
         vertex -1.550000e+01 -8.500000e+01 0.000000e+00
      endloop
   endfacet
   facet normal 0.000000e+00 0.000000e+00 -1.000000e+00
      outer loop
         vertex -3.000000e+00 -6.650000e+01 0.000000e+00
         vertex -3.000000e+00 -6.950000e+01 0.000000e+00
         vertex -1.550000e+01 -6.950000e+01 0.000000e+00
      endloop
   endfacet
   facet normal 0.000000e+00 -0.000000e+00 -1.000000e+00
      outer loop
         vertex -5.074000e+01 -3.650000e+01 0.000000e+00
         vertex -3.000000e+00 -3.000000e+00 0.000000e+00
         vertex -3.000000e+00 -6.650000e+01 0.000000e+00
      endloop
   endfacet
   facet normal 0.000000e+00 0.000000e+00 -1.000000e+00
      outer loop
         vertex -5.074000e+01 -3.650000e+01 0.000000e+00
         vertex -5.400000e+01 6.613093e-15 0.000000e+00
         vertex -3.000000e+00 -3.000000e+00 0.000000e+00
      endloop
   endfacet
   facet normal 0.000000e+00 0.000000e+00 -1.000000e+00
      outer loop
         vertex -3.000000e+00 -6.650000e+01 0.000000e+00
         vertex -1.550000e+01 -6.950000e+01 0.000000e+00
         vertex -5.074000e+01 -3.650000e+01 0.000000e+00
      endloop
   endfacet
   facet normal 0.000000e+00 0.000000e+00 -1.000000e+00
      outer loop
         vertex -3.550000e+01 -6.950000e+01 0.000000e+00
         vertex -5.074000e+01 -3.950000e+01 0.000000e+00
         vertex -1.550000e+01 -6.950000e+01 0.000000e+00
      endloop
   endfacet
endsolid
