solid 
   facet normal 0.000000e+00 0.000000e+00 -1.000000e+00
      outer loop
         vertex -3.400000e+01 -7.500000e+00 0.000000e+00
         vertex -3.550000e+01 -1.200000e+01 0.000000e+00
         vertex -3.550000e+01 4.347496e-15 0.000000e+00
      endloop
   endfacet
   facet normal 0.000000e+00 0.000000e+00 -1.000000e+00
      outer loop
         vertex -3.100000e+01 -7.500000e+00 0.000000e+00
         vertex -2.300000e+01 -1.200000e+01 0.000000e+00
         vertex -3.550000e+01 -1.200000e+01 0.000000e+00
      endloop
   endfacet
   facet normal 0.000000e+00 0.000000e+00 -1.000000e+00
      outer loop
         vertex -1.470000e+01 -2.080000e+01 0.000000e+00
         vertex -2.300000e+01 -3.050000e+01 0.000000e+00
         vertex -2.300000e+01 -1.200000e+01 0.000000e+00
      endloop
   endfacet
   facet normal 0.000000e+00 0.000000e+00 -1.000000e+00
      outer loop
         vertex -1.700000e+01 -2.750000e+01 0.000000e+00
         vertex -1.700000e+01 -3.050000e+01 0.000000e+00
         vertex -2.300000e+01 -3.050000e+01 0.000000e+00
      endloop
   endfacet
   facet normal 0.000000e+00 0.000000e+00 -1.000000e+00
      outer loop
         vertex -1.470000e+01 -2.350000e+01 0.000000e+00
         vertex -1.350000e+01 -2.750000e+01 0.000000e+00
         vertex -1.700000e+01 -2.750000e+01 0.000000e+00
      endloop
   endfacet
   facet normal -0.000000e+00 -0.000000e+00 -1.000000e+00
      outer loop
         vertex -1.470000e+01 -2.350000e+01 0.000000e+00
         vertex -1.350000e+01 -2.350000e+01 0.000000e+00
         vertex -1.350000e+01 -2.750000e+01 0.000000e+00
      endloop
   endfacet
   facet normal 0.000000e+00 -0.000000e+00 -1.000000e+00
      outer loop
         vertex -1.700000e+01 -2.750000e+01 0.000000e+00
         vertex -1.470000e+01 -2.080000e+01 0.000000e+00
         vertex -1.470000e+01 -2.350000e+01 0.000000e+00
      endloop
   endfacet
   facet normal 0.000000e+00 0.000000e+00 -1.000000e+00
      outer loop
         vertex -1.350000e+01 -1.520000e+01 0.000000e+00
         vertex -1.350000e+01 -2.080000e+01 0.000000e+00
         vertex -1.470000e+01 -2.080000e+01 0.000000e+00
      endloop
   endfacet
   facet normal 0.000000e+00 0.000000e+00 -1.000000e+00
      outer loop
         vertex 0.000000e+00 0.000000e+00 0.000000e+00
         vertex -1.050000e+01 -1.520000e+01 0.000000e+00
         vertex -1.350000e+01 -1.520000e+01 0.000000e+00
      endloop
   endfacet
   facet normal 0.000000e+00 0.000000e+00 -1.000000e+00
      outer loop
         vertex -9.300000e+00 -2.080000e+01 0.000000e+00
         vertex -1.050000e+01 -2.080000e+01 0.000000e+00
         vertex -1.050000e+01 -1.520000e+01 0.000000e+00
      endloop
   endfacet
   facet normal 0.000000e+00 0.000000e+00 -1.000000e+00
      outer loop
         vertex -7.000000e+00 -2.750000e+01 0.000000e+00
         vertex -9.300000e+00 -2.350000e+01 0.000000e+00
         vertex -9.300000e+00 -2.080000e+01 0.000000e+00
      endloop
   endfacet
   facet normal 0.000000e+00 0.000000e+00 -1.000000e+00
      outer loop
         vertex -1.050000e+01 -2.750000e+01 0.000000e+00
         vertex -1.050000e+01 -2.350000e+01 0.000000e+00
         vertex -9.300000e+00 -2.350000e+01 0.000000e+00
      endloop
   endfacet
   facet normal 0.000000e+00 0.000000e+00 -1.000000e+00
      outer loop
         vertex -9.300000e+00 -2.350000e+01 0.000000e+00
         vertex -7.000000e+00 -2.750000e+01 0.000000e+00
         vertex -1.050000e+01 -2.750000e+01 0.000000e+00
      endloop
   endfacet
   facet normal 0.000000e+00 0.000000e+00 -1.000000e+00
      outer loop
         vertex -3.735173e-15 -3.050000e+01 0.000000e+00
         vertex -7.000000e+00 -3.050000e+01 0.000000e+00
         vertex -7.000000e+00 -2.750000e+01 0.000000e+00
      endloop
   endfacet
   facet normal 0.000000e+00 0.000000e+00 -1.000000e+00
      outer loop
         vertex -9.300000e+00 -2.080000e+01 0.000000e+00
         vertex 0.000000e+00 0.000000e+00 0.000000e+00
         vertex -3.735173e-15 -3.050000e+01 0.000000e+00
      endloop
   endfacet
   facet normal 0.000000e+00 0.000000e+00 -1.000000e+00
      outer loop
         vertex -3.100000e+01 -2.500000e+00 0.000000e+00
         vertex -3.550000e+01 4.347496e-15 0.000000e+00
         vertex 0.000000e+00 0.000000e+00 0.000000e+00
      endloop
   endfacet
   facet normal -0.000000e+00 -0.000000e+00 -1.000000e+00
      outer loop
         vertex -3.550000e+01 4.347496e-15 0.000000e+00
         vertex -3.400000e+01 -2.500000e+00 0.000000e+00
         vertex -3.400000e+01 -7.500000e+00 0.000000e+00
      endloop
   endfacet
   facet normal 0.000000e+00 0.000000e+00 -1.000000e+00
      outer loop
         vertex -3.550000e+01 4.347496e-15 0.000000e+00
         vertex -3.100000e+01 -2.500000e+00 0.000000e+00
         vertex -3.400000e+01 -2.500000e+00 0.000000e+00
      endloop
   endfacet
   facet normal 0.000000e+00 0.000000e+00 -1.000000e+00
      outer loop
         vertex -2.300000e+01 -1.200000e+01 0.000000e+00
         vertex -3.100000e+01 -7.500000e+00 0.000000e+00
         vertex -3.100000e+01 -2.500000e+00 0.000000e+00
      endloop
   endfacet
   facet normal 0.000000e+00 -0.000000e+00 -1.000000e+00
      outer loop
         vertex -3.550000e+01 -1.200000e+01 0.000000e+00
         vertex -3.400000e+01 -7.500000e+00 0.000000e+00
         vertex -3.100000e+01 -7.500000e+00 0.000000e+00
      endloop
   endfacet
   facet normal 0.000000e+00 0.000000e+00 -1.000000e+00
      outer loop
         vertex -1.350000e+01 -1.520000e+01 0.000000e+00
         vertex -1.470000e+01 -2.080000e+01 0.000000e+00
         vertex -2.300000e+01 -1.200000e+01 0.000000e+00
      endloop
   endfacet
   facet normal 0.000000e+00 0.000000e+00 -1.000000e+00
      outer loop
         vertex -1.700000e+01 -2.750000e+01 0.000000e+00
         vertex -2.300000e+01 -3.050000e+01 0.000000e+00
         vertex -1.470000e+01 -2.080000e+01 0.000000e+00
      endloop
   endfacet
   facet normal 0.000000e+00 0.000000e+00 -1.000000e+00
      outer loop
         vertex -2.300000e+01 -1.200000e+01 0.000000e+00
         vertex 0.000000e+00 0.000000e+00 0.000000e+00
         vertex -1.350000e+01 -1.520000e+01 0.000000e+00
      endloop
   endfacet
   facet normal 0.000000e+00 0.000000e+00 -1.000000e+00
      outer loop
         vertex -9.300000e+00 -2.080000e+01 0.000000e+00
         vertex -1.050000e+01 -1.520000e+01 0.000000e+00
         vertex 0.000000e+00 0.000000e+00 0.000000e+00
      endloop
   endfacet
   facet normal 0.000000e+00 0.000000e+00 -1.000000e+00
      outer loop
         vertex -3.735173e-15 -3.050000e+01 0.000000e+00
         vertex -7.000000e+00 -2.750000e+01 0.000000e+00
         vertex -9.300000e+00 -2.080000e+01 0.000000e+00
      endloop
   endfacet
   facet normal 0.000000e+00 0.000000e+00 -1.000000e+00
      outer loop
         vertex -2.300000e+01 -1.200000e+01 0.000000e+00
         vertex -3.100000e+01 -2.500000e+00 0.000000e+00
         vertex 0.000000e+00 0.000000e+00 0.000000e+00
      endloop
   endfacet
   facet normal 0.000000e+00 0.000000e+00 1.000000e+00
      outer loop
         vertex 0.000000e+00 0.000000e+00 3.000000e+00
         vertex -3.550000e+01 4.347496e-15 3.000000e+00
         vertex -3.100000e+01 -2.500000e+00 3.000000e+00
      endloop
   endfacet
   facet normal 0.000000e+00 0.000000e+00 1.000000e+00
      outer loop
         vertex -3.550000e+01 4.347496e-15 3.000000e+00
         vertex -3.550000e+01 -1.200000e+01 3.000000e+00
         vertex -3.400000e+01 -7.500000e+00 3.000000e+00
      endloop
   endfacet
   facet normal 0.000000e+00 0.000000e+00 1.000000e+00
      outer loop
         vertex -3.550000e+01 -1.200000e+01 3.000000e+00
         vertex -2.300000e+01 -1.200000e+01 3.000000e+00
         vertex -3.100000e+01 -7.500000e+00 3.000000e+00
      endloop
   endfacet
   facet normal 0.000000e+00 0.000000e+00 1.000000e+00
      outer loop
         vertex -2.300000e+01 -1.200000e+01 3.000000e+00
         vertex -2.300000e+01 -3.050000e+01 3.000000e+00
         vertex -1.470000e+01 -2.080000e+01 3.000000e+00
      endloop
   endfacet
   facet normal 0.000000e+00 -0.000000e+00 1.000000e+00
      outer loop
         vertex -2.300000e+01 -3.050000e+01 3.000000e+00
         vertex -1.700000e+01 -3.050000e+01 3.000000e+00
         vertex -1.700000e+01 -2.750000e+01 3.000000e+00
      endloop
   endfacet
   facet normal 0.000000e+00 0.000000e+00 1.000000e+00
      outer loop
         vertex -1.700000e+01 -2.750000e+01 3.000000e+00
         vertex -1.350000e+01 -2.750000e+01 3.000000e+00
         vertex -1.470000e+01 -2.350000e+01 3.000000e+00
      endloop
   endfacet
   facet normal 0.000000e+00 0.000000e+00 1.000000e+00
      outer loop
         vertex -1.350000e+01 -2.750000e+01 3.000000e+00
         vertex -1.350000e+01 -2.350000e+01 3.000000e+00
         vertex -1.470000e+01 -2.350000e+01 3.000000e+00
      endloop
   endfacet
   facet normal 0.000000e+00 0.000000e+00 1.000000e+00
      outer loop
         vertex -1.470000e+01 -2.350000e+01 3.000000e+00
         vertex -1.470000e+01 -2.080000e+01 3.000000e+00
         vertex -1.700000e+01 -2.750000e+01 3.000000e+00
      endloop
   endfacet
   facet normal 0.000000e+00 -0.000000e+00 1.000000e+00
      outer loop
         vertex -1.470000e+01 -2.080000e+01 3.000000e+00
         vertex -1.350000e+01 -2.080000e+01 3.000000e+00
         vertex -1.350000e+01 -1.520000e+01 3.000000e+00
      endloop
   endfacet
   facet normal 0.000000e+00 -0.000000e+00 1.000000e+00
      outer loop
         vertex -1.350000e+01 -1.520000e+01 3.000000e+00
         vertex -1.050000e+01 -1.520000e+01 3.000000e+00
         vertex 0.000000e+00 0.000000e+00 3.000000e+00
      endloop
   endfacet
   facet normal 0.000000e+00 0.000000e+00 1.000000e+00
      outer loop
         vertex -1.050000e+01 -1.520000e+01 3.000000e+00
         vertex -1.050000e+01 -2.080000e+01 3.000000e+00
         vertex -9.300000e+00 -2.080000e+01 3.000000e+00
      endloop
   endfacet
   facet normal -0.000000e+00 0.000000e+00 1.000000e+00
      outer loop
         vertex -9.300000e+00 -2.080000e+01 3.000000e+00
         vertex -9.300000e+00 -2.350000e+01 3.000000e+00
         vertex -7.000000e+00 -2.750000e+01 3.000000e+00
      endloop
   endfacet
   facet normal -0.000000e+00 0.000000e+00 1.000000e+00
      outer loop
         vertex -9.300000e+00 -2.350000e+01 3.000000e+00
         vertex -1.050000e+01 -2.350000e+01 3.000000e+00
         vertex -1.050000e+01 -2.750000e+01 3.000000e+00
      endloop
   endfacet
   facet normal 0.000000e+00 0.000000e+00 1.000000e+00
      outer loop
         vertex -1.050000e+01 -2.750000e+01 3.000000e+00
         vertex -7.000000e+00 -2.750000e+01 3.000000e+00
         vertex -9.300000e+00 -2.350000e+01 3.000000e+00
      endloop
   endfacet
   facet normal 0.000000e+00 0.000000e+00 1.000000e+00
      outer loop
         vertex -7.000000e+00 -2.750000e+01 3.000000e+00
         vertex -7.000000e+00 -3.050000e+01 3.000000e+00
         vertex -3.735173e-15 -3.050000e+01 3.000000e+00
      endloop
   endfacet
   facet normal 0.000000e+00 0.000000e+00 1.000000e+00
      outer loop
         vertex -3.735173e-15 -3.050000e+01 3.000000e+00
         vertex 0.000000e+00 0.000000e+00 3.000000e+00
         vertex -9.300000e+00 -2.080000e+01 3.000000e+00
      endloop
   endfacet
   facet normal -0.000000e+00 0.000000e+00 1.000000e+00
      outer loop
         vertex -3.100000e+01 -2.500000e+00 3.000000e+00
         vertex -3.100000e+01 -7.500000e+00 3.000000e+00
         vertex -2.300000e+01 -1.200000e+01 3.000000e+00
      endloop
   endfacet
   facet normal -0.000000e+00 0.000000e+00 1.000000e+00
      outer loop
         vertex -3.100000e+01 -7.500000e+00 3.000000e+00
         vertex -3.400000e+01 -7.500000e+00 3.000000e+00
         vertex -3.550000e+01 -1.200000e+01 3.000000e+00
      endloop
   endfacet
   facet normal 0.000000e+00 0.000000e+00 1.000000e+00
      outer loop
         vertex -3.400000e+01 -7.500000e+00 3.000000e+00
         vertex -3.400000e+01 -2.500000e+00 3.000000e+00
         vertex -3.550000e+01 4.347496e-15 3.000000e+00
      endloop
   endfacet
   facet normal 0.000000e+00 0.000000e+00 1.000000e+00
      outer loop
         vertex -3.400000e+01 -2.500000e+00 3.000000e+00
         vertex -3.100000e+01 -2.500000e+00 3.000000e+00
         vertex -3.550000e+01 4.347496e-15 3.000000e+00
      endloop
   endfacet
   facet normal -0.000000e+00 0.000000e+00 1.000000e+00
      outer loop
         vertex 0.000000e+00 0.000000e+00 3.000000e+00
         vertex -3.100000e+01 -2.500000e+00 3.000000e+00
         vertex -2.300000e+01 -1.200000e+01 3.000000e+00
      endloop
   endfacet
   facet normal 0.000000e+00 -0.000000e+00 1.000000e+00
      outer loop
         vertex -2.300000e+01 -1.200000e+01 3.000000e+00
         vertex -1.470000e+01 -2.080000e+01 3.000000e+00
         vertex -1.350000e+01 -1.520000e+01 3.000000e+00
      endloop
   endfacet
   facet normal 0.000000e+00 0.000000e+00 1.000000e+00
      outer loop
         vertex -1.470000e+01 -2.080000e+01 3.000000e+00
         vertex -2.300000e+01 -3.050000e+01 3.000000e+00
         vertex -1.700000e+01 -2.750000e+01 3.000000e+00
      endloop
   endfacet
   facet normal 0.000000e+00 0.000000e+00 1.000000e+00
      outer loop
         vertex -1.350000e+01 -1.520000e+01 3.000000e+00
         vertex 0.000000e+00 0.000000e+00 3.000000e+00
         vertex -2.300000e+01 -1.200000e+01 3.000000e+00
      endloop
   endfacet
   facet normal -0.000000e+00 0.000000e+00 1.000000e+00
      outer loop
         vertex 0.000000e+00 0.000000e+00 3.000000e+00
         vertex -1.050000e+01 -1.520000e+01 3.000000e+00
         vertex -9.300000e+00 -2.080000e+01 3.000000e+00
      endloop
   endfacet
   facet normal -0.000000e+00 -0.000000e+00 1.000000e+00
      outer loop
         vertex -9.300000e+00 -2.080000e+01 3.000000e+00
         vertex -7.000000e+00 -2.750000e+01 3.000000e+00
         vertex -3.735173e-15 -3.050000e+01 3.000000e+00
      endloop
   endfacet
   facet normal 1.000000e+00 0.000000e+00 -0.000000e+00
      outer loop
         vertex -3.400000e+01 -7.500000e+00 0.000000e+00
         vertex -3.400000e+01 -2.500000e+00 0.000000e+00
         vertex -3.400000e+01 -2.500000e+00 3.000000e+00
      endloop
   endfacet
   facet normal 1.000000e+00 -0.000000e+00 0.000000e+00
      outer loop
         vertex -3.400000e+01 -2.500000e+00 3.000000e+00
         vertex -3.400000e+01 -7.500000e+00 3.000000e+00
         vertex -3.400000e+01 -7.500000e+00 0.000000e+00
      endloop
   endfacet
   facet normal 0.000000e+00 -1.000000e+00 0.000000e+00
      outer loop
         vertex -3.400000e+01 -2.500000e+00 0.000000e+00
         vertex -3.100000e+01 -2.500000e+00 0.000000e+00
         vertex -3.100000e+01 -2.500000e+00 3.000000e+00
      endloop
   endfacet
   facet normal 0.000000e+00 -1.000000e+00 0.000000e+00
      outer loop
         vertex -3.100000e+01 -2.500000e+00 3.000000e+00
         vertex -3.400000e+01 -2.500000e+00 3.000000e+00
         vertex -3.400000e+01 -2.500000e+00 0.000000e+00
      endloop
   endfacet
   facet normal -1.000000e+00 0.000000e+00 0.000000e+00
      outer loop
         vertex -3.100000e+01 -2.500000e+00 0.000000e+00
         vertex -3.100000e+01 -7.500000e+00 0.000000e+00
         vertex -3.100000e+01 -7.500000e+00 3.000000e+00
      endloop
   endfacet
   facet normal -1.000000e+00 -0.000000e+00 -0.000000e+00
      outer loop
         vertex -3.100000e+01 -7.500000e+00 3.000000e+00
         vertex -3.100000e+01 -2.500000e+00 3.000000e+00
         vertex -3.100000e+01 -2.500000e+00 0.000000e+00
      endloop
   endfacet
   facet normal 0.000000e+00 1.000000e+00 0.000000e+00
      outer loop
         vertex -3.100000e+01 -7.500000e+00 0.000000e+00
         vertex -3.400000e+01 -7.500000e+00 0.000000e+00
         vertex -3.400000e+01 -7.500000e+00 3.000000e+00
      endloop
   endfacet
   facet normal 0.000000e+00 1.000000e+00 0.000000e+00
      outer loop
         vertex -3.400000e+01 -7.500000e+00 3.000000e+00
         vertex -3.100000e+01 -7.500000e+00 3.000000e+00
         vertex -3.100000e+01 -7.500000e+00 0.000000e+00
      endloop
   endfacet
   facet normal 1.224647e-16 1.000000e+00 -0.000000e+00
      outer loop
         vertex 0.000000e+00 0.000000e+00 3.000000e+00
         vertex 0.000000e+00 0.000000e+00 0.000000e+00
         vertex -3.550000e+01 4.347496e-15 0.000000e+00
      endloop
   endfacet
   facet normal 1.224647e-16 1.000000e+00 0.000000e+00
      outer loop
         vertex -3.550000e+01 4.347496e-15 0.000000e+00
         vertex -3.550000e+01 4.347496e-15 3.000000e+00
         vertex 0.000000e+00 0.000000e+00 3.000000e+00
      endloop
   endfacet
   facet normal 1.000000e+00 -1.224647e-16 0.000000e+00
      outer loop
         vertex -3.735173e-15 -3.050000e+01 3.000000e+00
         vertex -3.735173e-15 -3.050000e+01 0.000000e+00
         vertex 0.000000e+00 0.000000e+00 0.000000e+00
      endloop
   endfacet
   facet normal 1.000000e+00 -1.224647e-16 0.000000e+00
      outer loop
         vertex 0.000000e+00 0.000000e+00 0.000000e+00
         vertex 0.000000e+00 0.000000e+00 3.000000e+00
         vertex -3.735173e-15 -3.050000e+01 3.000000e+00
      endloop
   endfacet
   facet normal 0.000000e+00 -1.000000e+00 0.000000e+00
      outer loop
         vertex -7.000000e+00 -3.050000e+01 3.000000e+00
         vertex -7.000000e+00 -3.050000e+01 0.000000e+00
         vertex -3.735173e-15 -3.050000e+01 0.000000e+00
      endloop
   endfacet
   facet normal -0.000000e+00 -1.000000e+00 -0.000000e+00
      outer loop
         vertex -3.735173e-15 -3.050000e+01 0.000000e+00
         vertex -3.735173e-15 -3.050000e+01 3.000000e+00
         vertex -7.000000e+00 -3.050000e+01 3.000000e+00
      endloop
   endfacet
   facet normal -1.000000e+00 0.000000e+00 0.000000e+00
      outer loop
         vertex -7.000000e+00 -2.750000e+01 3.000000e+00
         vertex -7.000000e+00 -2.750000e+01 0.000000e+00
         vertex -7.000000e+00 -3.050000e+01 0.000000e+00
      endloop
   endfacet
   facet normal -1.000000e+00 0.000000e+00 0.000000e+00
      outer loop
         vertex -7.000000e+00 -3.050000e+01 0.000000e+00
         vertex -7.000000e+00 -3.050000e+01 3.000000e+00
         vertex -7.000000e+00 -2.750000e+01 3.000000e+00
      endloop
   endfacet
   facet normal 0.000000e+00 -1.000000e+00 0.000000e+00
      outer loop
         vertex -1.050000e+01 -2.750000e+01 3.000000e+00
         vertex -1.050000e+01 -2.750000e+01 0.000000e+00
         vertex -7.000000e+00 -2.750000e+01 0.000000e+00
      endloop
   endfacet
   facet normal -0.000000e+00 -1.000000e+00 -0.000000e+00
      outer loop
         vertex -7.000000e+00 -2.750000e+01 0.000000e+00
         vertex -7.000000e+00 -2.750000e+01 3.000000e+00
         vertex -1.050000e+01 -2.750000e+01 3.000000e+00
      endloop
   endfacet
   facet normal -1.000000e+00 0.000000e+00 0.000000e+00
      outer loop
         vertex -1.050000e+01 -2.350000e+01 3.000000e+00
         vertex -1.050000e+01 -2.350000e+01 0.000000e+00
         vertex -1.050000e+01 -2.750000e+01 0.000000e+00
      endloop
   endfacet
   facet normal -1.000000e+00 0.000000e+00 0.000000e+00
      outer loop
         vertex -1.050000e+01 -2.750000e+01 0.000000e+00
         vertex -1.050000e+01 -2.750000e+01 3.000000e+00
         vertex -1.050000e+01 -2.350000e+01 3.000000e+00
      endloop
   endfacet
   facet normal 0.000000e+00 1.000000e+00 -0.000000e+00
      outer loop
         vertex -9.300000e+00 -2.350000e+01 3.000000e+00
         vertex -9.300000e+00 -2.350000e+01 0.000000e+00
         vertex -1.050000e+01 -2.350000e+01 0.000000e+00
      endloop
   endfacet
   facet normal -0.000000e+00 1.000000e+00 0.000000e+00
      outer loop
         vertex -1.050000e+01 -2.350000e+01 0.000000e+00
         vertex -1.050000e+01 -2.350000e+01 3.000000e+00
         vertex -9.300000e+00 -2.350000e+01 3.000000e+00
      endloop
   endfacet
   facet normal -1.000000e+00 0.000000e+00 0.000000e+00
      outer loop
         vertex -9.300000e+00 -2.080000e+01 3.000000e+00
         vertex -9.300000e+00 -2.080000e+01 0.000000e+00
         vertex -9.300000e+00 -2.350000e+01 0.000000e+00
      endloop
   endfacet
   facet normal -1.000000e+00 0.000000e+00 0.000000e+00
      outer loop
         vertex -9.300000e+00 -2.350000e+01 0.000000e+00
         vertex -9.300000e+00 -2.350000e+01 3.000000e+00
         vertex -9.300000e+00 -2.080000e+01 3.000000e+00
      endloop
   endfacet
   facet normal 0.000000e+00 -1.000000e+00 0.000000e+00
      outer loop
         vertex -1.050000e+01 -2.080000e+01 3.000000e+00
         vertex -1.050000e+01 -2.080000e+01 0.000000e+00
         vertex -9.300000e+00 -2.080000e+01 0.000000e+00
      endloop
   endfacet
   facet normal -0.000000e+00 -1.000000e+00 -0.000000e+00
      outer loop
         vertex -9.300000e+00 -2.080000e+01 0.000000e+00
         vertex -9.300000e+00 -2.080000e+01 3.000000e+00
         vertex -1.050000e+01 -2.080000e+01 3.000000e+00
      endloop
   endfacet
   facet normal -1.000000e+00 0.000000e+00 0.000000e+00
      outer loop
         vertex -1.050000e+01 -1.520000e+01 3.000000e+00
         vertex -1.050000e+01 -1.520000e+01 0.000000e+00
         vertex -1.050000e+01 -2.080000e+01 0.000000e+00
      endloop
   endfacet
   facet normal -1.000000e+00 0.000000e+00 0.000000e+00
      outer loop
         vertex -1.050000e+01 -2.080000e+01 0.000000e+00
         vertex -1.050000e+01 -2.080000e+01 3.000000e+00
         vertex -1.050000e+01 -1.520000e+01 3.000000e+00
      endloop
   endfacet
   facet normal 0.000000e+00 -1.000000e+00 0.000000e+00
      outer loop
         vertex -1.350000e+01 -1.520000e+01 3.000000e+00
         vertex -1.350000e+01 -1.520000e+01 0.000000e+00
         vertex -1.050000e+01 -1.520000e+01 0.000000e+00
      endloop
   endfacet
   facet normal -0.000000e+00 -1.000000e+00 -0.000000e+00
      outer loop
         vertex -1.050000e+01 -1.520000e+01 0.000000e+00
         vertex -1.050000e+01 -1.520000e+01 3.000000e+00
         vertex -1.350000e+01 -1.520000e+01 3.000000e+00
      endloop
   endfacet
   facet normal 1.000000e+00 0.000000e+00 0.000000e+00
      outer loop
         vertex -1.350000e+01 -2.080000e+01 3.000000e+00
         vertex -1.350000e+01 -2.080000e+01 0.000000e+00
         vertex -1.350000e+01 -1.520000e+01 0.000000e+00
      endloop
   endfacet
   facet normal 1.000000e+00 0.000000e+00 0.000000e+00
      outer loop
         vertex -1.350000e+01 -1.520000e+01 0.000000e+00
         vertex -1.350000e+01 -1.520000e+01 3.000000e+00
         vertex -1.350000e+01 -2.080000e+01 3.000000e+00
      endloop
   endfacet
   facet normal 0.000000e+00 -1.000000e+00 0.000000e+00
      outer loop
         vertex -1.470000e+01 -2.080000e+01 3.000000e+00
         vertex -1.470000e+01 -2.080000e+01 0.000000e+00
         vertex -1.350000e+01 -2.080000e+01 0.000000e+00
      endloop
   endfacet
   facet normal -0.000000e+00 -1.000000e+00 -0.000000e+00
      outer loop
         vertex -1.350000e+01 -2.080000e+01 0.000000e+00
         vertex -1.350000e+01 -2.080000e+01 3.000000e+00
         vertex -1.470000e+01 -2.080000e+01 3.000000e+00
      endloop
   endfacet
   facet normal 1.000000e+00 0.000000e+00 0.000000e+00
      outer loop
         vertex -1.470000e+01 -2.350000e+01 3.000000e+00
         vertex -1.470000e+01 -2.350000e+01 0.000000e+00
         vertex -1.470000e+01 -2.080000e+01 0.000000e+00
      endloop
   endfacet
   facet normal 1.000000e+00 0.000000e+00 0.000000e+00
      outer loop
         vertex -1.470000e+01 -2.080000e+01 0.000000e+00
         vertex -1.470000e+01 -2.080000e+01 3.000000e+00
         vertex -1.470000e+01 -2.350000e+01 3.000000e+00
      endloop
   endfacet
   facet normal 0.000000e+00 1.000000e+00 -0.000000e+00
      outer loop
         vertex -1.350000e+01 -2.350000e+01 3.000000e+00
         vertex -1.350000e+01 -2.350000e+01 0.000000e+00
         vertex -1.470000e+01 -2.350000e+01 0.000000e+00
      endloop
   endfacet
   facet normal -0.000000e+00 1.000000e+00 0.000000e+00
      outer loop
         vertex -1.470000e+01 -2.350000e+01 0.000000e+00
         vertex -1.470000e+01 -2.350000e+01 3.000000e+00
         vertex -1.350000e+01 -2.350000e+01 3.000000e+00
      endloop
   endfacet
   facet normal 1.000000e+00 0.000000e+00 0.000000e+00
      outer loop
         vertex -1.350000e+01 -2.750000e+01 3.000000e+00
         vertex -1.350000e+01 -2.750000e+01 0.000000e+00
         vertex -1.350000e+01 -2.350000e+01 0.000000e+00
      endloop
   endfacet
   facet normal 1.000000e+00 0.000000e+00 0.000000e+00
      outer loop
         vertex -1.350000e+01 -2.350000e+01 0.000000e+00
         vertex -1.350000e+01 -2.350000e+01 3.000000e+00
         vertex -1.350000e+01 -2.750000e+01 3.000000e+00
      endloop
   endfacet
   facet normal 0.000000e+00 -1.000000e+00 0.000000e+00
      outer loop
         vertex -1.700000e+01 -2.750000e+01 3.000000e+00
         vertex -1.700000e+01 -2.750000e+01 0.000000e+00
         vertex -1.350000e+01 -2.750000e+01 0.000000e+00
      endloop
   endfacet
   facet normal -0.000000e+00 -1.000000e+00 -0.000000e+00
      outer loop
         vertex -1.350000e+01 -2.750000e+01 0.000000e+00
         vertex -1.350000e+01 -2.750000e+01 3.000000e+00
         vertex -1.700000e+01 -2.750000e+01 3.000000e+00
      endloop
   endfacet
   facet normal 1.000000e+00 0.000000e+00 0.000000e+00
      outer loop
         vertex -1.700000e+01 -3.050000e+01 3.000000e+00
         vertex -1.700000e+01 -3.050000e+01 0.000000e+00
         vertex -1.700000e+01 -2.750000e+01 0.000000e+00
      endloop
   endfacet
   facet normal 1.000000e+00 0.000000e+00 0.000000e+00
      outer loop
         vertex -1.700000e+01 -2.750000e+01 0.000000e+00
         vertex -1.700000e+01 -2.750000e+01 3.000000e+00
         vertex -1.700000e+01 -3.050000e+01 3.000000e+00
      endloop
   endfacet
   facet normal 0.000000e+00 -1.000000e+00 0.000000e+00
      outer loop
         vertex -2.300000e+01 -3.050000e+01 3.000000e+00
         vertex -2.300000e+01 -3.050000e+01 0.000000e+00
         vertex -1.700000e+01 -3.050000e+01 0.000000e+00
      endloop
   endfacet
   facet normal -0.000000e+00 -1.000000e+00 -0.000000e+00
      outer loop
         vertex -1.700000e+01 -3.050000e+01 0.000000e+00
         vertex -1.700000e+01 -3.050000e+01 3.000000e+00
         vertex -2.300000e+01 -3.050000e+01 3.000000e+00
      endloop
   endfacet
   facet normal -1.000000e+00 0.000000e+00 0.000000e+00
      outer loop
         vertex -2.300000e+01 -1.200000e+01 3.000000e+00
         vertex -2.300000e+01 -1.200000e+01 0.000000e+00
         vertex -2.300000e+01 -3.050000e+01 0.000000e+00
      endloop
   endfacet
   facet normal -1.000000e+00 0.000000e+00 0.000000e+00
      outer loop
         vertex -2.300000e+01 -3.050000e+01 0.000000e+00
         vertex -2.300000e+01 -3.050000e+01 3.000000e+00
         vertex -2.300000e+01 -1.200000e+01 3.000000e+00
      endloop
   endfacet
   facet normal 0.000000e+00 -1.000000e+00 0.000000e+00
      outer loop
         vertex -3.550000e+01 -1.200000e+01 3.000000e+00
         vertex -3.550000e+01 -1.200000e+01 0.000000e+00
         vertex -2.300000e+01 -1.200000e+01 0.000000e+00
      endloop
   endfacet
   facet normal -0.000000e+00 -1.000000e+00 -0.000000e+00
      outer loop
         vertex -2.300000e+01 -1.200000e+01 0.000000e+00
         vertex -2.300000e+01 -1.200000e+01 3.000000e+00
         vertex -3.550000e+01 -1.200000e+01 3.000000e+00
      endloop
   endfacet
   facet normal -1.000000e+00 0.000000e+00 0.000000e+00
      outer loop
         vertex -3.550000e+01 4.347496e-15 3.000000e+00
         vertex -3.550000e+01 4.347496e-15 0.000000e+00
         vertex -3.550000e+01 -1.200000e+01 0.000000e+00
      endloop
   endfacet
   facet normal -1.000000e+00 0.000000e+00 0.000000e+00
      outer loop
         vertex -3.550000e+01 -1.200000e+01 0.000000e+00
         vertex -3.550000e+01 -1.200000e+01 3.000000e+00
         vertex -3.550000e+01 4.347496e-15 3.000000e+00
      endloop
   endfacet
endsolid
